/* XPM */
static char *greystones1689878915[] = {
/* columns rows colors chars-per-pixel */
"64 64 35 1 ",
"  c black",
". c #040404",
"X c gray4",
"o c #0E0E0E",
"O c #111111",
"+ c #393939",
"@ c gray27",
"# c gray28",
"$ c #484848",
"% c gray31",
"& c #535353",
"* c #555555",
"= c #585858",
"- c gray36",
"; c gray38",
": c #676767",
"> c #6A6A6A",
", c gray42",
"< c gray44",
"1 c #777777",
"2 c #7B7B7B",
"3 c gray50",
"4 c #838383",
"5 c #848484",
"6 c gray54",
"7 c #8D8D8D",
"8 c gray57",
"9 c #959595",
"0 c #9A9A9A",
"q c gray62",
"w c gray64",
"e c gray65",
"r c gray68",
"t c #B2B2B2",
"y c #B4B4B4",
/* pixels */
"                                                                ",
" 7996588556666999999885566  000022%&qq66776688886600  660977<1$ ",
" &>>4432q02222222200216677  %&4488::1<988911q022<>88  ##-;33**0 ",
" &>>3433q022222222q0115677  %%4488::<19999<10q22<<88  ##;;33**0 ",
" >444444434344434343441<qw  &%>>3422==44434344447699  %%,,=*668 ",
" >44434444444444444444<1qq  %%::4422=*44444434446609  &&,,=&668 ",
" >544544434443434344448888  >:4444343444434444436666  >>4332<>0 ",
" >444444443444444434348888  >>4443444443443434446666  >>3334<<9 ",
" >4444444344444334444488qw  >>>:44444343434443436690  :>>:44466 ",
" >4434344434344444434388qq  ::>>43434444443444446609  >>>>43666 ",
" &>:>:434444>::>>>4444-;99  %&:>>>44:>>>4444:>44=-88  >:::44==9 ",
" &>:>>443434>>>:::4443--99  %%>>::43>>:>3434>:44--88  >>>>44==0 ",
" >>,>:>>&%&%::>>%%>:>>;:qq  >>>:%&>:>>>>>:%%>>%%:;qw  %%>:&%-;9 ",
" >,,>>>:%%%&>>>:%&>>>>::qw  >>>>%%>>>:>>>>%&:>%&::qq  %%>>%&;-9 ",
"            ..OOOO                                              ",
"            . OOOO                                              ",
" eeetyyy9009oo++1190448787000q0qqq77==  0000q0erreq0q000eree90q ",
" eeetyyy0990oo++119966777799q0q0qq77-=  q0q000eeee00000qeeww09q ",
" e54we442109OO##&&3334761<1111892143;;XX##21ee4334eeew34ew33210 ",
" e44ew441200OO##&&324466111<11891244;;XX$$11ew4444eeew44ee33120 ",
" 4444344q0reXX%&;;:;44004434444411>>09XX##===-32443444344444qqw ",
" 434443400eeXX%%:;;:44004344434311>>90XX##==-=22434443443444qqw ",
" 4434444q0q0  ::>,;;::qq44443444<<;;q0  >>2211=*444444444444qq0 ",
" 44434340000  ::,<;;::qq43434443<<;;00  :>2211**434343433444qq0 ",
" 4444343qwrr  >:,><,=*6644444433>,-;rr  >:>>443434344444443400r ",
" 4444444qqrr  >>,,<<=*6644344433,,;;ee  >:>:344444444343344400e ",
" 443:>44:>we  >>>:31**ww>>>:>:11;-;;0q  %&>:>>44:>>>3444>>44;;q ",
" 444>:44>>we  :>>:11**ww::>>>>12-;;;00  %%>>:>43:>::4444:>43:;0 ",
" >%%>>%%>:ew  %%:>%%>>%%>>>:%&::*&;:qq  >:>>%&>>>>>:>:%%>>%%::q ",
" >%&:>%&>>ee  %&:>%&:>%&>>>>%%::&&::eq  >>>:%%:>>:>>>>&%::&&;:q ",
"                                                                ",
"                                                                ",
" eyteeyyq09899wwwq0qwqeeee  we0098qwwq988999retyeewe  88989988q ",
" eytweyt009898qqwwq0wwwewe  eeq099wqqw999998ertteewe  88999988w ",
" &>>4443ee44443443q01<9900  %%2299111198891189111100  $%=-55557 ",
" %::4444ew434444440011990q  %&228911119999<19911110q  %$--55558 ",
" >44434343443444444322<<ww  %&::434344434343221177ww  %%:>22657 ",
" >34444444344443344422<<qw  %%>>444434444444221<87qw  &%>:22556 ",
" :444344444434344343449898  >>3443444343434444448989  >:4444<<9 ",
" >444434343444444444449999  >>4444344444443434439999  >>3445<>0 ",
" >3444444444433443434389qw  >>>>444344343434443489qw  :>>:44566 ",
" >4443443434444444444489ww  :>:>344444444444444498ww  >>>>43666 ",
" %>>>>444444:>>>:>4344;-99  %%>>:>43>:>:4434>:44;-99  >:::44==0 ",
" &:>::433444>::>>:4444;;89  &%>:>:44>:>>4344>:44-;89  >>>>44==9 ",
" >>>>>>>%%&%:>>>%&>>:>;;00  :>>>%%>:>>;:-;$%;;%$:;00  &%>>%&;-9 ",
" >>>>:>>%&%%>>:>%%:>:>;:q0  >>:>%&>>>::::;%$;;%%;:0q  %%:>%&-;9 ",
"                                                                ",
"                                                                ",
" eewyyyyeeee  00eeww998777090990098700  qqewqqrereq0q000eeew00q ",
" eeeytyywewe  0qweee9978780999099078qq  qqewwqeeee00000qewew0qq ",
" w44we4344ee  &%;:0q77552<111189<<5588  &%44we3434eeew34qw22110 ",
" w44ew4444ew  %%::007756,>111198<15588  &%44we4444eeew44qq22110 ",
" 4444444eeyy  &%::2265554234443432>>99  %&:>344444344434434399e ",
" 4444434weyt  %%>:2255552244434422>>09  %%:>444343444344444400e ",
" 5544444eewe  >:43<1>>0q34343434436666  >:443434444444444344099 ",
" 5543434ewwe  >:341<>>qq43434343346666  >:444444434343434444999 ",
" 5433434wwtt  ::>:<1559933333333335690  >:>>443434344444434399w ",
" 4344343wett  ::::1<569933343333346699  >:>>444444444343444499w ",
" 533:>34::ww  ::;:<<==wq:;:;;:3221**67  %%>::>44>>>>3444:>43;;0 ",
" 543:>33>:qq  :;::<<**qw;::::;3322*=66  %%>>:>43>>::4444>:44;-0 ",
" >%%:>%%;:qq  $%;;$#-=99;;;:%$:;--==99  ::>>%&>>::>>>:%%>>%%::q ",
" >%%:>$%::qq  %$;:$#==99:;;;$%;:--==90  ::::%%:>>>>:>>&%::&&;:q ",
"                                                                ",
"                                                                "
};
