/* XPM */
static char *coin1691411322[] = {
/* columns rows colors chars-per-pixel */
"64 64 24 1 ",
"  c gray45",
". c #E86237",
"X c #E86337",
"o c #E96337",
"O c #E86238",
"+ c #E96338",
"@ c #EE9C38",
"# c #EE9D38",
"$ c #EF9D39",
"% c #F3C344",
"& c #F4C244",
"* c #F4C344",
"= c #FAEA5F",
"- c #FAEB60",
"; c #FBEB60",
": c #808080",
"> c gray73",
", c #C1C1C1",
"< c gray78",
"1 c gray81",
"2 c gray83",
"3 c #D7D7D7",
"4 c gainsboro",
"5 c gray88",
/* pixels */
"555555553333555555555555444444445555555555555555555555555555::::",
"555555553333555555555555444444445555555555555555555555555555::::",
"555555553333555555555555444444445555555555555555555555555555::::",
"555555553333555555555555444444445555555555555555555555555555::::",
"55551111>>>>>>>>,,,,<<<<<<<<,,,,22221111111111111111,,,,,,,,::::",
"55551111>>>>>>>>,,,,<<<<<<<<,,,,22221111111111111111,,,,,,,,::::",
"55551111>>>>>>>>,,,,<<<<<<<<,,,,22221111111111111111,,,,,,,,::::",
"55551111>>>>>>>>,,,,<<<<<<<<,,,,22221111111111111111,,,,,,,,::::",
"5555111111111111111111111111111111111111111111111111>>>>1111    ",
"5555111111111111111111111111111111111111111111111111>>>>1111    ",
"5555111111111111111111111111111111111111111111111111>>>>1111    ",
"5555111111111111111111111111111111111111111111111111>>>>1111    ",
"555511111111111111111111111111111111>>>>,,,,>>>>>>>>11111111    ",
"555511111111111111111111111111oo1111>>>>,,,,>>>>>>>>11111111    ",
"555511111111111111111111111111..1111>>>>,,,,>>>>>>>>11111111    ",
"555511111111111111111111111...**ooo1>>>>,,,,>>>>>>>>11111111    ",
"555511111111111133222222222...**ooo1111111111111111111111111    ",
"555511111111111122222222232...&&ooo1111111111111111111111111    ",
"555511111111111122222222oo.===**=;=oXX1111111111111111111111    ",
"555511111111111122222222...-==**;;=XXX1111111111111111111111    ",
"5555,,,,,,,,,,,,,,,,>...***---**;;;%**oXo22211111111,,,,,,,,::::",
"5555,,,,,,,,,,,,,,,,>...***---**;;;*%%oXo22211111111,,,,,,,,::::",
"5555,,,,,,,,,,,,,,,,>o..***---**;=;*%%XX.32211111111,,,,,,,,::::",
"5555,,,,,,,,,,,,,,ooo===;;;***;;***$@@@@@ooo11111111,,,,,,,,::::",
"3333,,,,1111111111ooo;;;;;;***-;**%#####$.oo222211111111>>>>::::",
"3333,,,,1111111111ooo;;;%**---$$$$#%%%##$.oo222211111111>>>>::::",
"3333,,,,1111111111ooo;;;***---$$###%%%##$.oo222211111111>>>>::::",
"3333,,,,1111111111oo+;;;***---$$###%%%##$ooo222211111111>>>>::::",
"555511111111111111XXX=;;***@@@$$###%%%##$...>>>>>>>>11111111::::",
"555511111111111111XXo=;;***@#@$$###%%%##$o..>>>>>>>>11111111::::",
"555511111111111111oXo#$$***#@@#$@@@%%%$$$+oo>>>>>>>>11111111::::",
"555511111111111111oXX#$$***#@@$$@@#%%%$$$++o>>>>>>>>11111111::::",
"555511111111111111XXX###**%@@@#@$$$%%%$$$ooo1111111122222222 :::",
"555511111111111111XoX###***@@@#@$$$%%%$$$.oo1111111122222222::::",
"555511111111111111ooX@##**%@@@@@$$$%%%$$$O..1111111122222222::::",
"555511111111111111ooo@@@###%%%@@***$$$###+++1111111122232222::::",
"555511111111>>>>>>XXo@@@###%&&@@**%$$$###O++1111111111111111    ",
"555511111111>>>>>>>>>.XX***#@@&&###%%%oo+1111111111111111111    ",
"555511111111>>>>>>>>>Xoo***#@@**###%%%+++1111111111111111111    ",
"555511111111>>>>>>>>>Xoo***#@@**##$%%%++o1111111111111111123    ",
"555511111111111111111111...@@@**###oXX11111111111111,,,,,,,,    ",
"555511111111111111111111..o$@@**###oXX11111111111111,,,,,,,,    ",
"555511111111111111111111111..o**ooo11111111111111111,,,,,,,,    ",
"555511111111111111111111111.oo**ooo11111111111111111,,,,,,,,    ",
"55551111>>>>111122222222222...**ooo2111111111111111122222222    ",
"55551111>>>>111122222222222233O.2222111111111111111122222222    ",
"55551111>>>>111122222222222222..2222111111111111111122222222    ",
"55551111>>>>111122222222222222222222111111111111111122222222    ",
"3333>>>>>>>>111111111111>>>>>>>>,,,,,,,,,,,,,,,,>>>>11111111    ",
"3333>>>>>>>>111111111111>>>>>>>>,,,,,,,,,,,,,,,,>>>>11111111    ",
"3333>>>>>>>>111111111111>>>>>>>>,,,,,,,,,,,,,,,,>>>>11111111    ",
"3333>>>>>>>>111111111111>>>>>>>>,,,,,,,,,,,,,,,,>>>>11111111    ",
"555511111111111111111111111111111111222222221111111111111111    ",
"555511111111111111111111111111111111222222221111111111111111    ",
"555511111111111111111111111111111111222222221111111111111111    ",
"555511111111111111111112111111111111222222221111111111111111    ",
"55551111>>>>,,,,,,,,,,,,,,,,>>>>1111111111111111,,,,>>>>1111    ",
"55551111>>>>,,,,,,,,,,,,,,,,>>>>1111111111111111,,,,>>>>1111    ",
"55551111>>>>,,,,,,,,,,,,,,,,>>>>1111111111121111,,,,>>>>1111    ",
"55551111>>>>,,,,,,,,,,,,,,,,>>>,1111111111131111,,,,>>>>1111    ",
"::::                            :::: ::::::::::: :::            ",
"::::                            ::::::::::::::::::::            ",
"::::                            ::::::::::::::::::::            ",
"::::                            ::::::::::::::::::::            "
};
