/* XPM */
static char *ec1691410657[] = {
/* columns rows colors chars-per-pixel */
"64 64 13 1 ",
"  c #171629",
". c #252A44",
"X c #2B3A57",
"o c #3A5B6C",
"O c gray45",
"+ c #669693",
"@ c #808080",
"# c #8EBB92",
"$ c gray73",
"% c #C1C1C1",
"& c gray81",
"* c #D7D7D7",
"= c gray88",
/* pixels */
"========****========++++################++++================@@@@",
"========****========++++################++++================@@@@",
"========****========++++################++++================@@@@",
"========****=+++++++++++################+++++++++++=========@@@@",
"====&&&&$$$$$+++++++++++################+++++++++++&%%%%%%%%@@@@",
"====&&&&$$$$$+++++++++++################+++++++++++&%%%%%%%%@@@@",
"====&&&&$$$$$+++++++++++################+++++++++++&%%%%%%%%@@@@",
"====&&&&$$++++++++++#######+++++++++++++++++++++++++++%%%%%%@@@@",
"====&&&&&&++++++++++#######+++++++++++++++++++++++++++$$&&&&OOOO",
"====&&&&&&++++++++++#######+++++++++++++++++++++++++++$$&&&&OOOO",
"====&&&ooo+++###########++++++ooooooooooooooooooooo+++ooo&&&OOOO",
"====&&&ooo+++###########++++++ooooooooooooooooooooo+++ooo&&&OOOO",
"====&&&ooo+++###########++++++ooooooooooooooooooooo+++ooo&&&OOOO",
"====&&&ooo+++###########++++++ooooooooooooooooooooo+++ooo&&&OOOO",
"===ooooooo+++####++++++++++oooooooXXXXXXXXXXoooooooooooooooooOOO",
"===ooooooo+++####++++++++++oooooooXXXXXXXXXXoooooooooooooooooOOO",
"===ooooooo+++####++++++++++oooooooXXXXXXXXXXoooooooooooooooooOOO",
"===ooooooo#######+++oooooooooooooo      XXXXXXXXXXXooooooooooOOO",
"===ooooooo#######+++oooooooooooooo      XXXXXXXXXXXooooooooooOOO",
"===ooooooo#######+++oooooooooooooo      XXXXXXXXXXXooooooooooOOO",
"===ooooooo#######+++oooooooooooooo      XXXXXXXXXXXoooooooooo@@@",
"ooooooo######+++++++ooooooo             XXXXXXXXXXXXXXoooooooooo",
"ooooooo######+++++++ooooooo             XXXXXXXXXXXXXXoooooooooo",
"ooooooo######+++++++ooooooo             XXXXXXXXXXXXXXoooooooooo",
"ooooooo######+++++++oooo      ##########.......XXXXXXXoooooooooo",
"ooooooo######+++++++oooo      ##########.......XXXXXXXoooooooooo",
"ooooooo######+++++++oooo      ##########.......XXXXXXXoooooooooo",
"oooooooooo###+++++++oooo   #######   #######.......XXXXXXooooooo",
"oooooooooo###+++++++oooo   #######   #######.......XXXXXXooooooo",
"oooooooooo###+++++++oooo   #######   #######.......XXXXXXooooooo",
"oooooooooo###+++++++oooo   #######   #######.......XXXXXXooooooo",
"oooooooooo###+++++++oooo             +++#######....XXXXXXooooooo",
"oooooooooo###+++++++oooo             +++#######....XXXXXXooooooo",
"oooooooooo###+++++++oooo             +++#######....XXXXXXooooooo",
"oooXXXXooo#######+++ooooooo       ooo+++####.......XXXXXXooooooo",
"oooXXXXooo#######+++ooooooo       ooo+++####.......XXXXXXooooooo",
"oooXXXXooo#######+++ooooooo       ooo+++####.......XXXXXXooooooo",
"oooXXXXooo#######+++ooooooo       ooo+++####.......XXXXXXooooooo",
"XXXXXXXXXXooo####+++++++ooooooooooooo+++...........XXXXXXooooooo",
"XXXXXXXXXXooo####+++++++ooooooooooooo+++...........XXXXXXooooooo",
"XXXXXXXXXXooo####+++++++ooooooooooooo+++...........XXXXXXooooooo",
"XXXXXXXXXXXXX####+++++++++++++++++++++++...........XXXXXXXXXXXXX",
"XXXXXXXXXXXXX####+++++++++++++++++++++++...........XXXXXXXXXXXXX",
"XXXXXXXXXXXXX####+++++++++++++++++++++++...........XXXXXXXXXXXXX",
"===XXXXXXXXXX###########++++++++++###..............XXXXXXXXXXOOO",
"===XXXXXXXXXX###########++++++++++###..............XXXXXXXXXXOOO",
"===XXXXXXXXXX###########++++++++++###..............XXXXXXXXXXOOO",
"===XXXXXXXXXX###########++++++++++###..............XXXXXXXXXXOOO",
"***XXXXXXX.......#################.............XXXXXXXXXXXXXXOOO",
"***XXXXXXX.......#################.............XXXXXXXXXXXXXXOOO",
"***XXXXXXX.......#################.............XXXXXXXXXXXXXXOOO",
"****$$$XXX.........................................XXXXXX&&&OOOO",
"====&&&XXX.........................................XXXXXX&&&OOOO",
"====&&&XXX.........................................XXXXXX&&&OOOO",
"====&&&XXX.........................................XXXXXX&&&OOOO",
"====&&&&&&XXX.........................................&&&&&&OOOO",
"====&&&&$$XXX.........................................$$&&&&OOOO",
"====&&&&$$XXX.........................................$$&&&&OOOO",
"====&&&&$$$$%......................................%$$$$&&&&OOOO",
"====&&&&$$$$%......................................%$$$$&&&&OOOO",
"@@@@OOOOOOOOO......................................@OOOOOOOOOOOO",
"@@@@OOOOOOOOO......................................@OOOOOOOOOOOO",
"@@@@OOOOOOOOOOOOOOOO........................@@@@@@@@OOOOOOOOOOOO",
"@@@@OOOOOOOOOOOOOOOO........................@@@@@@@@OOOOOOOOOOOO"
};
