/* XPM */
static char *p1691417104[] = {
/* columns rows colors chars-per-pixel */
"64 64 18 1 ",
"  c black",
". c #704504",
"X c gray45",
"o c red",
"O c #D2AD5B",
"+ c #4F52FF",
"@ c #7275FF",
"# c #808080",
"$ c gray73",
"% c #8E91FF",
"& c #C1C1C1",
"* c gray78",
"= c gray81",
"- c gray83",
"; c #D7D7D7",
": c gainsboro",
"> c gray88",
", c white",
/* pixels */
">>>>>>>>;;;;>>>>>>>>>>>>::::::::>>>>>>>>>>>>>>>>>>>>>>>>>>>>####",
">>>>>>>>;;;;>>>>>>>>>>>>::::::::>>>>>>>>>>>>>>>>>>>>>>>>>>>>####",
">>>>>>>>;;;;>>>>>>>>>>>>::::::::>>>>>>>>>>>>>>>>>>>>>>>>>>>>####",
">>>>>>>>;;;;>>>>>>>>>>>>::::::::>>>>>>>>>>>>>>>>>>>>>>>>>>>>####",
">>>>====$$$$$$$$&&&&********&&&&----================&&&&&&&&####",
">>>>====$$$$$$$$&&&&********&&&&----================&&&&&&&&####",
">>>>====$$$$$$$$&&&&********&&&&----================&&&&&&&&####",
">>>>====$$$$$$$$&&&&********&&&&--;;================&&&&&&&&####",
">>>>================================================$$$$====XXXX",
">>>>================================================$$$$====XXXX",
">>>>============  ==================================$$$$====XXXX",
">>>>============  ==================================$$$$====XXXX",
">>>>==========  %%  ================$$$$&&&&$$$$$$$$========XXXX",
">>>>==========  %%  ================$$$$&&&&$$$$$$$$========XXXX",
">>>>==========  %%  ==============      &&&&$$$$$$$$========XXXX",
">>>>==========  %%  ==============      &&&&$$$$$$$$========XXXX",
">>>>========  %%%%++  ;;  ;---    %%%%%%    ================XXXX",
">>>>========  %%%%++  --  ;---    %%%%%%    ================XXXX",
">>>>========  %%++++    %%    %%%%      @@@@  ==============XXXX",
">>>>========  %%++++    %%    %%%%      @@@@  ==============XXXX",
">>>>&&&&&&&&  ++    %%  ++  %%%%  ......    ========&&&&&&&&####",
">>>>&&&&&&&&  ++    %%  ++  %%%%  ......    ========&&&&&&&&####",
">>>>&&&&&&&&&&  %%  %%%%++  %%  ........  ;;========&&&&&&&&####",
">>>>&&&&&&&&&&  %%  %%%%++  %%  ........  --========&&&&&&&&####",
";;;;&&&&======  %%++%%%%%%  %%........++          ======$$$$####",
";;;;&&&&======  %%++%%%%%%  %%........++          ======$$$$####",
";;;;&&&&====  ++++%%%%%%%%++%%......++    ++@@@@  ======$$$$####",
";;;;&&&&====  ++++%%%%%%%%++%%......++    ++@@@@  ======$$$$####",
">>>>========  %%%%%%%%%%++++++++++    ++    ++  $$$$========####",
">>>>========  %%%%%%%%%%++++++++++    ++    ++  $$$$========####",
">>>>======  %%%%%%++%%  ,,++++++++++++++++++  $$$$$$========####",
">>>>======  %%%%%%++%%  ,,++++++++++++++++++  $$$$$$========####",
">>>>======  ++%%%%%%  oo,,++++++++++++++  ++++  ====--------X###",
">>>>======  ++%%%%%%  oo,,++++++++++++++  ++++  ====--------X###",
">>>>========  ++++++++++++OO  ++++++++++  @@++    ==---;----####",
">>>>========  ++++++++++++OO  ++++++++++  @@++    ==---;----####",
">>>>========          OOOO  ++++++++    @@@@++  @@  ========XXXX",
">>>>========          OOOO  ++++++++    @@@@++  @@  ========XXXX",
">>>>======  ,,++++        ++++++++  ,,@@@@++  ++++@@  ====-=XXXX",
">>>>======  ,,++++        ++++++++  ,,@@@@++  ++++@@  ====;:XXXX",
">>>>======  ++,,  ======  ++++++OOOO  ,,++  ++      &&&&$$&&XXXX",
">>>>======  ++,,  ======  ++++++OOOO  ,,++  ++      &&&&&&&&XXXX",
">>>>========    ======  @@++++++OOOOOO    ++++  ====&&&&&&&&XXXX",
">>>>========    ======  @@++++++OOOOOO    ++++  ====&&&&&&&&XXXX",
">>>>====$$$$====----;-  @@OO++++++OOOO@@@@++++  ====--------XXXX",
">>>>====$$$$====----;-  @@OO++++++OOOO@@@@++++  ====--------XXXX",
">>>>====$$$$====----  ,,    OOOOOO  @@@@@@@@++  ====------;;XXXX",
">>>>====$$$$====--;;  ,,    OOOOOO  @@@@@@@@++  ====------;;XXXX",
";;;;$$$$$$$$==========              @@  ++      $$$$========XXXX",
";;;;$$$$$$$$==========              @@  ++      $$$$========XXXX",
";;;;$$$$$$$$============$$$$$$$$&&&&  ,,++,,  &&$$$$========XXXX",
";;;;$$$$$$$$============$$$$$$$$&&&&  ,,++,,  &&$$$$========XXXX",
">>>>================================--      ================XXXX",
">>>>================================--      ================XXXX",
">>>>================================------;;================XXXX",
">>>>================================--------================XXXX",
">>>>====$$$$&&&&&&&&&&&&&&&&$$$$================&&&&$$$$====XXXX",
">>>>====$$$$&&&&&&&&&&&&&&&&$$$$================&&&&$$$$====XXXX",
">>>>====$$$$&&&&&&&&&&&&&&&&$$$$================&&&&$$$$====XXXX",
">>>>====$$$$&&&&&&&&&&&&&&&&$$$$================&&&&$$$$====XXXX",
"####XXXXXXXXXXXXXXXXXXXXXXXXXXXX####################XXXXXXXXXXXX",
"####XXXXXXXXXXXXXXXXXXXXXXXXXXXX####################XXXXXXXXXXXX",
"####XXXXXXXXXXXXXXXXXXXXXXXXXXXX####################XXXXXXXXXXXX",
"####XXXXXXXXXXXXXXXXXXXXXXXXXXXX####################XXXXXXXXXXXX"
};
