/* XPM */
static char *poe1691417076[] = {
/* columns rows colors chars-per-pixel */
"64 64 20 1 ",
"  c black",
". c #704504",
"X c #252A44",
"o c #2B3A57",
"O c #3A5B6C",
"+ c gray45",
"@ c red",
"# c #D2AD5B",
"$ c #4F52FF",
"% c #7275FF",
"& c #669693",
"* c #808080",
"= c #8EBB92",
"- c gray73",
"; c #8E91FF",
": c #C1C1C1",
"> c gray81",
", c #D7D7D7",
"< c gray88",
"1 c white",
/* pixels */
"<<<<<<<<,,,,<<<<<<<<&&&&================&&&&<<<<<<<<<<<<<<<<****",
"<<<<<<<<,,,,<<<<<<<<&&&&================&&&&<<<<<<<<<<<<<<<<****",
"<<<<<<<<,,,,<<<<<<<<&&&&================&&&&<<<<<<<<<<<<<<<<****",
"<<<<<<<<,,,,<&&&&&&&&&&&================&&&&&&&&&&&<<<<<<<<<****",
"<<<<>>>>-----&&&&&&&&&&&================&&&&&&&&&&&>::::::::****",
"<<<<>>>>-----&&&&&&&&&&&================&&&&&&&&&&&>::::::::****",
"<<<<>>>>-----&&&&&&&&&&&================&&&&&&&&&&&>::::::::****",
"<<<<>>>>--&&&&&&&&&&=======&&&&&&&&&&&&&&&&&&&&&&&&&&&::::::****",
"<<<<>>>>>>&&&&&&&&&&=======&&&&&&&&&&&&&&&&&&&&&&&&&&&-->>>>++++",
"<<<<>>>>>>&&&&&&&&&&=======&&&&&&&&&&&&&&&&&&&&&&&&&&&-->>>>++++",
"<<<<>>>OOO&&&===  ======&&&&&&OOOOOOOOOOOOOOOOOOOOO&&&OOO>>>++++",
"<<<<>>>OOO&&&===  ======&&&&&&OOOOOOOOOOOOOOOOOOOOO&&&OOO>>>++++",
"<<<<>>>OOO&&&=  ;;  ====&&&&&&OOOOOOOOOOOOOOOOOOOOO&&&OOO>>>++++",
"<<<OOOOOOO&&&=  ;;  &&&&&&&OOOOOOOooooooooooOOOOOOOOOOOOOOOOO+++",
"<<<OOOOOOO&&&=  ;;  &&&&&&&OOOOOOO      ooooOOOOOOOOOOOOOOOOO+++",
"<<<OOOOOOO&&&=  ;;  &&&&&&&OOOOOOO      ooooOOOOOOOOOOOOOOOOO+++",
"<<<OOOOOOO&&  ;;;;$$  &&  &OOO    ;;;;;;    OOOOOOOOOOOOOOOOO+++",
"<<<OOOOOOO==  ;;;;$$  OO  OOOO    ;;;;;;    oooooooOOOOOOOOOO+++",
"<<<OOOOOOO==  ;;$$$$    ;;    ;;;;      %%%%  oooooOOOOOOOOOO+++",
"<<<OOOOOOO==  ;;$$$$    ;;    ;;;;      %%%%  oooooOOOOOOOOOO+++",
"OOOOOOO=====  $$    ;;  $$  ;;;;  ......    ooooooooooOOOOOOOOOO",
"OOOOOOO=====  $$    ;;  $$  ;;;;  ......    ooooooooooOOOOOOOOOO",
"OOOOOOO======&  ;;  ;;;;$$  ;;  ........  ooooooooooooOOOOOOOOOO",
"OOOOOOO======&  ;;  ;;;;$$  ;;  ........  ooooooooooooOOOOOOOOOO",
"OOOOOOO======&  ;;$$;;;;;;  ;;........$$          ooooOOOOOOOOOO",
"OOOOOOO======&  ;;$$;;;;;;  ;;........$$          ooooOOOOOOOOOO",
"OOOOOOO=====  $$$$;;;;;;;;$$;;......$$    $$%%%%  ooooOOOOOOOOOO",
"OOOOOOOOOO==  $$$$;;;;;;;;$$;;......$$    $$%%%%  XooooooOOOOOOO",
"OOOOOOOOOO==  ;;;;;;;;;;$$$$$$$$$$    $$    $$  XXXooooooOOOOOOO",
"OOOOOOOOOO==  ;;;;;;;;;;$$$$$$$$$$    $$    $$  XXXooooooOOOOOOO",
"OOOOOOOOOO  ;;;;;;$$;;  11$$$$$$$$$$$$$$$$$$  =XXXXooooooOOOOOOO",
"OOOOOOOOOO  ;;;;;;$$;;  11$$$$$$$$$$$$$$$$$$  =XXXXooooooOOOOOOO",
"OOOOOOOOOO  $$;;;;;;  @@11$$$$$$$$$$$$$$  $$$$  XXXooooooOOOOOOO",
"OOOOOOOOOO  $$;;;;;;  @@11$$$$$$$$$$$$$$  $$$$  XXXooooooOOOOOOO",
"OOOooooOOO==  $$$$$$$$$$$$##  $$$$$$$$$$  %%$$    XooooooOOOOOOO",
"OOOooooOOO==  $$$$$$$$$$$$##  $$$$$$$$$$  %%$$    XooooooOOOOOOO",
"OOOooooOOO==          ####  $$$$$$$$    %%%%$$  %%  oooooOOOOOOO",
"ooooooooooOO          ####  $$$$$$$$    %%%%$$  %%  oooooOOOOOOO",
"oooooooooo  11$$$$        $$$$$$$$  11%%%%$$  $$$$%%  oooOOOOOOO",
"oooooooooo  11$$$$        $$$$$$$$  11%%%%$$  $$$$%%  oooOOOOOOO",
"oooooooooo  $$11  &&&&&&  $$$$$$####  11$$  $$      oooooooooooo",
"oooooooooo  $$11  &&&&&&  $$$$$$####  11$$  $$      oooooooooooo",
"oooooooooooo    =&&&&&  %%$$$$$$######    $$$$  XXXooooooooooooo",
"oooooooooooo    =&&&&&  %%$$$$$$######    $$$$  XXXooooooooooooo",
"<<<oooooooooo=========  %%##$$$$$$####%%%%$$$$  XXXoooooooooo+++",
"<<<oooooooooo=========  %%##$$$$$$####%%%%$$$$  XXXoooooooooo+++",
"<<<oooooooooo=======  11    ######  %%%%%%%%$$  XXXoooooooooo+++",
"<<<oooooooXXXXXXX===  11    ######  %%%%%%%%$$  ooooooooooooo+++",
",,,oooooooXXXXXXX=====              %%  $$      ooooooooooooo+++",
",,,oooooooXXXXXXX=====              %%  $$      ooooooooooooo+++",
",,,oooooooXXXXXXX=================XX  11$$11  Xoooooooooooooo+++",
",,,,---oooXXXXXXXXXXXXXXXXXXXXXXXXXX  11$$11  XXXXXoooooo>>>++++",
"<<<<>>>oooXXXXXXXXXXXXXXXXXXXXXXXXXXXX      XXXXXXXoooooo>>>++++",
"<<<<>>>oooXXXXXXXXXXXXXXXXXXXXXXXXXXXX      XXXXXXXoooooo>>>++++",
"<<<<>>>>>>oooXXXXXXXXXXXXXXXXXXXXXXXXXXXXXXXXXXXXXXXXX>>>>>>++++",
"<<<<>>>>>>oooXXXXXXXXXXXXXXXXXXXXXXXXXXXXXXXXXXXXXXXXX>>>>>>++++",
"<<<<>>>>--oooXXXXXXXXXXXXXXXXXXXXXXXXXXXXXXXXXXXXXXXXX-->>>>++++",
"<<<<>>>>----:XXXXXXXXXXXXXXXXXXXXXXXXXXXXXXXXXXXXXX:---->>>>++++",
"<<<<>>>>----:XXXXXXXXXXXXXXXXXXXXXXXXXXXXXXXXXXXXXX:---->>>>++++",
"<<<<>>>>----:XXXXXXXXXXXXXXXXXXXXXXXXXXXXXXXXXXXXXX:---->>>>++++",
"****+++++++++XXXXXXXXXXXXXXXXXXXXXXXXXXXXXXXXXXXXXX*++++++++++++",
"****++++++++++++++++XXXXXXXXXXXXXXXXXXXXXXXX********++++++++++++",
"****++++++++++++++++XXXXXXXXXXXXXXXXXXXXXXXX********++++++++++++",
"****++++++++++++++++XXXXXXXXXXXXXXXXXXXXXXXX********++++++++++++"
};
