/* XPM */
static char *polish_stones1689878957[] = {
/* columns rows colors chars-per-pixel */
"64 64 10 1 ",
"  c gray45",
". c #808080",
"X c gray73",
"o c #C1C1C1",
"O c gray78",
"+ c gray81",
"@ c gray83",
"# c #D7D7D7",
"$ c gainsboro",
"% c gray88",
/* pixels */
"%%%%%%%%####%%%%%%%%%%%%$$$$$$$$%%%%%%%%%%%%%%%%%%%%%%%%%%%%....",
"%%%%%%%%####%%%%%%%%%%%%$$$$$$$$%%%%%%%%%%%%%%%%%%%%%%%%%%%%....",
"%%%%%%%%####%%%%%%%%%%%%$$$$$$$$%%%%%%%%%%%$%%%%%%%%%%%%%%%%....",
"%%%%%%%%####%%%%%%%$%%%%$$$$$$$$%%%%%%%%%%%$%%%%%%%%%%%%%%%%....",
"%%%%++++XXXXXXXXooooOOOOOOOOoooo@@@@#+++++++++++#+++Xooooooo....",
"%%%%++++XXXXXXXXooooOOOOOOOOoooo@@@@++++++++++++++++oooooooo....",
"%%%%++++XXXXXXXXooooOOOOOOOOoooo@@@@++++++++++++++++oooooooo....",
"%%%%++++XXXXXXXXoooXOOOOOOOOoooo@@@#++++++++++++++++oooooooo....",
"%%%%++++++++++++++++++++++++++++++++++++++++++++++++XXXX#+++    ",
"%%%%++++++++++++++++++++++++++++++++++++++++++++++++XXXX++++    ",
"%%%%++++++++++++++++++++++++++++++++++++++++++++++++XXXX++++    ",
"%%%%+++++++++++++++++++++++++++++++++++++++++++@++++XXXX++++    ",
"%%%%++++++++++++++++++++++++++++++++XXXXXoooXXXXXXXX++++++++    ",
"%%%%++++++++++++++++++++++++++++++++XXXXooooXXXXXXXX++++++++    ",
"%%%%++++++++++++++++++++++++++++++++XXXXooooXXXXXXXX++++++++    ",
"%%%%++++++++++++++++++++++++++++++++XXXXooooXXXXXXXX++++++++    ",
"%%%%++++++++++++##@@@@@@@@@@@@@@++++++++++++++++++++++++++++    ",
"%%%%++++++++++++@@@@@@@@@@@@@@@@++++++++++++++++++++++++++++    ",
"%%%%++++++++++++@@@@@@@@@@@@@@@@++++++++++++++++++++++++++++    ",
"%%%%++++++++++++@@@@@@@@@@@@@@@@+++++++++++++++++++++++@++++    ",
"%%%%ooooooooooooooooXXXXXXXXXXXX++++++++@@@@++++++++Xooooooo ...",
"%%%%ooooooooooooooooXXXXXXXXXXXX++++++++@@@@++++++++oooooooo ...",
"%%%%ooooooooooooooooXXXXXXXXXXXX++++++++@@@@++++++++oooooooo....",
"%%%%ooooooooooooooXXXXXXXXXXXXXX++++++++@@@@++++++++ooooooO+....",
"####oooo++++++++#+++++++++++++++XXXX++++++++#@@@++++++++XXXX....",
"####oooo++++++++@+++++++++++++++XXXX++++++++@@@@++++++++XXXX....",
"####oooo++++++++++++++++++++++++XXXX++++++++@@@@++++++++XXXX....",
"####oooo++++++++++++++++++++++++XXXX++++++++@@@@++++++++XXXX....",
"%%%%++++++++++++++++++++++++XXXXXXXX++++XXXXXXXXXXXX++++++++....",
"%%%%++++++++++++++++++++++++XXXXXXXX++++XXXXXXXXXXXX++++++++....",
"%%%%++++++++++++++++++++++++XXXXXXXX++++XXXXXXXXXXXX++++++++....",
"%%%%++++++++++++++++++++++++XXXXXXXX++++XXXXXXXXXXXX+++++++@....",
"%%%%++++++++++++++++++++++++++++++++++++++++++++++++@@@@@@@@ ...",
"%%%%++++++++++++++++++++++++++++++++++++++++++++++++@@@@@@@@ ...",
"%%%%++++++++++++++++++++++++++++++++++++++++++++++++@@@@@@@@....",
"%%$$++++++++++++++++++++++++++++++++++++++++++++++++@@@@@@@@....",
"%%%%++++++++XXXXXXXXXXXXXXXXXXXX++++++++++++++++++++++++++++    ",
"%%%%++++++++XXXXXXXXXXXXXXXXXXXX++++++++++++++++++++++++++++    ",
"%%%%++++++++XXXXXXXXXXXXXXXXXXXX++++++++++++++++++++++++++++    ",
"%%%%++++++++XXXXXXXXXXXXXXXXXXXX++++++++++++++++++++++++++$$    ",
"%%%%#+++++++++++++++++++++++++++++++++++++++++++++++ooooXooo    ",
"%%%%++++++++++++++++++++++++++++++++++++++++++++++++oooooooo    ",
"%%%%++++++++++++++++++++++++++++++++++++++++++++++++oooooooo    ",
"%%%%++++++++++++++++++++++++++++++++++++++++++++++++oooooooo    ",
"%%%%++++XXXX++++@@@@@@@@@@@@@@@@@@@@++++++++++++++++@@@@@@@@    ",
"%%%%++++XXXX++++@@@@@@@@@@@@@@@@@@@@++++++++++++++++@@@@@@@@    ",
"%%%%++++XXXX++++@@@@@@@@@@@@@@@@@@@@++++++++++++++++@@@@@@@@    ",
"%%$$++++XXXX++++@@@@@@@@@@@@@@@@@@@@++++++++++++++++@@@@@@##    ",
"$###XXXXXXXX++++++++++++XXXXXXXXooooooooooooooooXXXX++++++++    ",
"####XXXXXXXX++++++++++++XXXXXXXXooooooooooooooooXXXX++++++++    ",
"####XXXXXXXX++++++++++++XXXXXXXXooooooooooooooooXXXX++++++++    ",
"####XXXXXXXX++++++++++++XXXXXXXXooooooooooooooooXXXX++++++++    ",
"$%%%#+++++++++++++++++++++++++++++++@@@@@@@@++++++++++++++++    ",
"%%%%++++++++++++++++++++++++++++++++@@@@@@@@++++++++++++++++    ",
"%%%%++++++++++++++++++++++++++++++++@@@@@@@@++++++++++++++++    ",
"%%%%+++++++++++++++++++#++++++++++++@@@@@@@@++++++++++++++++    ",
"%%%%++++XXXXXoooooooooooooooXXXX++++++++++++++++ooooXXXX++++    ",
"%%%%++++XXXXooooooooooooooooXXXX++++++++++++++++ooooXXXX++++    ",
"%%%%++++XXXXooooooooooooooooXXXX+++++++++++$++++ooooXXXX++++    ",
"%%$$+++@XXXXoooooooooooooooOXXXO+++++++++++$++++ooooXXXX++++    ",
"....                            .... ........... ...            ",
"....                            .... ........... ...            ",
"....                            ....................            ",
"....                            ....................            "
};
