/* XPM */
static char *eo1691410672[] = {
/* columns rows colors chars-per-pixel */
"64 64 12 1 ",
"  c #732761",
". c gray45",
"X c #9C277F",
"o c #BF1F97",
"O c #F700B9",
"+ c #808080",
"@ c gray73",
"# c #EB8DD7",
"$ c #C1C1C1",
"% c gray81",
"& c #D7D7D7",
"* c gray88",
/* pixels */
"********&&&&********OOOO################OOOO****************++++",
"********&&&&********OOOO################OOOO****************++++",
"********&&&&********OOOO################OOOO****************++++",
"********&&&&*OOOOOOOOOOO################OOOOOOOOOOO*********++++",
"****%%%%@@@@@OOOOOOOOOOO################OOOOOOOOOOO%$$$$$$$$++++",
"****%%%%@@@@@OOOOOOOOOOO################OOOOOOOOOOO%$$$$$$$$++++",
"****%%%%@@@@@OOOOOOOOOOO################OOOOOOOOOOO%$$$$$$$$++++",
"****%%%%@@OOOOOOOOOO#######OOOOOOOOOOOOOOOOOOOOOOOOOOO$$$$$$++++",
"****%%%%%%OOOOOOOOOO#######OOOOOOOOOOOOOOOOOOOOOOOOOOO@@%%%%....",
"****%%%%%%OOOOOOOOOO#######OOOOOOOOOOOOOOOOOOOOOOOOOOO@@%%%%....",
"****%%%oooOOO###########OOOOOOoooooooooooooooooooooOOOooo%%%....",
"****%%%oooOOO###########OOOOOOoooooooooooooooooooooOOOooo%%%....",
"****%%%oooOOO###########OOOOOOoooooooooooooooooooooOOOooo%%%....",
"***oooooooOOO####OOOOOOOOOOoooooooXXXXXXXXXXooooooooooooooooo...",
"***oooooooOOO####OOOOOOOOOOoooooooXXXXXXXXXXooooooooooooooooo...",
"***oooooooOOO####OOOOOOOOOOoooooooXXXXXXXXXXooooooooooooooooo...",
"***oooooooOOO####OOOOOOOOOOoooooooXXXXXXXXXXooooooooooooooooo...",
"***ooooooo#######OOOoooooooooooooo      XXXXXXXXXXXoooooooooo...",
"***ooooooo#######OOOoooooooooooooo      XXXXXXXXXXXoooooooooo...",
"***ooooooo#######OOOoooooooooooooo      XXXXXXXXXXXoooooooooo...",
"ooooooo######OOOOOOOooooooo             XXXXXXXXXXXXXXoooooooooo",
"ooooooo######OOOOOOOooooooo             XXXXXXXXXXXXXXoooooooooo",
"ooooooo######OOOOOOOooooooo             XXXXXXXXXXXXXXoooooooooo",
"ooooooo######OOOOOOOooooooo             XXXXXXXXXXXXXXoooooooooo",
"ooooooo######OOOOOOOoooo      ##########       XXXXXXXoooooooooo",
"ooooooo######OOOOOOOoooo      ##########       XXXXXXXoooooooooo",
"ooooooo######OOOOOOOoooo      ##########       XXXXXXXoooooooooo",
"oooooooooo###OOOOOOOoooo   #######   #######       XXXXXXooooooo",
"oooooooooo###OOOOOOOoooo   #######   #######       XXXXXXooooooo",
"oooooooooo###OOOOOOOoooo   #######   #######       XXXXXXooooooo",
"oooooooooo###OOOOOOOoooo             OOO#######    XXXXXXooooooo",
"oooooooooo###OOOOOOOoooo             OOO#######    XXXXXXooooooo",
"oooooooooo###OOOOOOOoooo             OOO#######    XXXXXXooooooo",
"oooooooooo###OOOOOOOoooo             OOO#######    XXXXXXooooooo",
"oooXXXXooo#######OOOooooooo       oooOOO####       XXXXXXooooooo",
"oooXXXXooo#######OOOooooooo       oooOOO####       XXXXXXooooooo",
"oooXXXXooo#######OOOooooooo       oooOOO####       XXXXXXooooooo",
"XXXXXXXXXXooo####OOOOOOOoooooooooooooOOO           XXXXXXooooooo",
"XXXXXXXXXXooo####OOOOOOOoooooooooooooOOO           XXXXXXooooooo",
"XXXXXXXXXXooo####OOOOOOOoooooooooooooOOO           XXXXXXooooooo",
"XXXXXXXXXXXXX####OOOOOOOOOOOOOOOOOOOOOOO           XXXXXXXXXXXXX",
"XXXXXXXXXXXXX####OOOOOOOOOOOOOOOOOOOOOOO           XXXXXXXXXXXXX",
"XXXXXXXXXXXXX####OOOOOOOOOOOOOOOOOOOOOOO           XXXXXXXXXXXXX",
"XXXXXXXXXXXXX####OOOOOOOOOOOOOOOOOOOOOOO           XXXXXXXXXXXXX",
"***XXXXXXXXXX###########OOOOOOOOOO###              XXXXXXXXXX...",
"***XXXXXXXXXX###########OOOOOOOOOO###              XXXXXXXXXX...",
"***XXXXXXXXXX###########OOOOOOOOOO###              XXXXXXXXXX...",
"***XXXXXXX       #################             XXXXXXXXXXXXXX...",
"&&&XXXXXXX       #################             XXXXXXXXXXXXXX...",
"&&&XXXXXXX       #################             XXXXXXXXXXXXXX...",
"&&&XXXXXXX       #################             XXXXXXXXXXXXXX...",
"&&&&@@@XXX                                         XXXXXX%%%....",
"****%%%XXX                                         XXXXXX%%%....",
"****%%%XXX                                         XXXXXX%%%....",
"****%%%%%%XXX                                         %%%%%%....",
"****%%%%%%XXX                                         %%%%%%....",
"****%%%%@@XXX                                         @@%%%%....",
"****%%%%@@@@$                                      $@@@@%%%%....",
"****%%%%@@@@$                                      $@@@@%%%%....",
"****%%%%@@@@$                                      $@@@@%%%%....",
"++++.........                                      +............",
"++++................                        ++++++++............",
"++++................                        ++++++++............",
"++++................                        ++++++++............"
};
