/* XPM */
static char *S1691411559[] = {
/* columns rows colors chars-per-pixel */
"64 64 19 1 ",
"  c black",
". c gray45",
"X c #B94222",
"o c #EA6C32",
"O c #DE5241",
"+ c #FBEB60",
"@ c #4451AF",
"# c #4E95EC",
"$ c #808080",
"% c gray73",
"& c #F6CF9C",
"* c #C1C1C1",
"= c gray78",
"- c gray81",
"; c gray83",
": c #D7D7D7",
"> c gainsboro",
", c gray88",
"< c white",
/* pixels */
",,,,,,,,::::,,,,,,,,,,,,>>>>>>>>,,,,,,,,,,,,,,,,,,,,,,,,,,,,$$$$",
",,,,,,,,::::,,,,,,,,,,,,>>>>>>>>,,,,,,,,,,,,,,,,,,,,,,,,,,,,$$$$",
",,,,,,,,::::,,,,,,,,,,,,>>>>>>>>,,,,,,,,,,,,,,,,,,,,,,,,,,,,$$$$",
",,,,,,,,::::,,,,,,,,,,,,>>>>>>>>,,,,,,,,,,,,,,,,,,,,,,,,,,,,$$$$",
",,,,----%%%%%%%%****========****;;;;----------------********$$$$",
",,,,----%%%%%%%%****========****;;;;----------------********$$$$",
",,,,----%%%%%%%%****========****;;;;----------------********$$$$",
",,,,----%%%%%%%%****========****;;::----------------********$$$$",
",,,,------------------------------------------------%%%%----....",
",,,,------------------------------------------------%%%%----....",
",,,,------------------------------------------------%%%%----....",
",,,,------------------------------------------------%%%%----....",
",,,,-------------------------   ----%%%%****%%%%%%%%--------....",
",,,,--------------- -----  -- oo ---%%%%****%%%%%%  --------....",
",,,,--------------- -----  -- oo ---%%%%****%%%%%%  --------....",
",,,,-------------- o  -  X -- ooo --%%%%****%%%%%% O  ------....",
",,,,------------:: o   XXX :;;  o ---------------- OOO -----....",
",,,,------------;; o   XXX :;;  o ---------------- OOO -----....",
",,,,------------  oo  XXXX :;;  oX   -------------- OO -----....",
",,,,---------  -  o XXXXX ;:;;  ooXXo ------------- OOO  ---....",
",,,,*********  *  o XXXXX %%%%  ooXXo --;:;;------- OOO  ***$$$$",
",,,,******** XX ooo   XXX %%%%  XoXXoo   :;;------ OOOO  ***$$$$",
",,,,******** XXoooo oo XX %%%%%% oooooooo   ------ OOO *****$$$$",
",,,,******** XXoooo oo XX %%%%%% oooooooo   ------ OOO *****$$$$",
"::::****--- X  ooo ooo XX ----  X oooooooooo :;;  oOOO -%%%%$$$$",
"::::****--- Xooooo o  @XXX ---  X ooooXXooooX  ;  +OOO -%%%%$$$$",
"::::****--- Xooooo o  @XXX ---  X ooooXXooooX  :  +OOO -%%%%$$$$",
"::::****-  Xoooo  oo  @XXX -- XXX@  ooooXoooX  :  o+++ -%%%%$$$$",
",,,,-----  ooooXooo    @@X   XXX ###  oooXX XXX %% o++o  ---$$$$",
",,,,-----  ooooXooo    @@X   XXX ###  oooXX XXX %% o++o  ---$$$$",
",,,,---- ooooooooooXXXX   XooX  #@###    ooo XX %% Ooo+  ---$$$$",
",,,,---- ooooXXo<<XXXXXXXXooooooXX## ---%  XX  X  % OO+++ --$$$$",
",,,,---- ooooXXo<<XXXXXXXXooooooXX## ----  XX  X  - OO+++ ;;.$$$",
",,,,---- XXoXoo <<X   &&&Xooooooo ### ----- X   XX O+++oo ;;.$$$",
",,,,--  oooXX  #XXX XX &&&&&&   oo  ##  --- XXX    O+++OO :;$$$$",
",,,,--  oooXX  #XXX XX &&&&&&   oo  ##  --- XXX    O+++OO :;$$$$",
",,,,- oooooooooXXX X  %  &&&&&&& ooo  ## --- XX -- o+++OO --....",
",,,,- oooXXooXX   XX  %  &&&&&   oXXoo   --- XXX  - +++  ---....",
",,,,- oooXXooXX   XX  %  &&&&&   oXXoo   --- XXX  - +++  -;-....",
",,,,--  XooX   %  <X<< XX &&&   ooXXo XXX  --  X  - ++ ---:>....",
",,,,----   < -----     XXXX  <oooXooX XXX   -  X   ooo *****....",
",,,,----   < -----     XXXX  <oooXooX XXX   -  X   ooo *****....",
",,,,------- -----------  XXXX   <X   oXXX  X    oooo  ******....",
",,,,---------------------     <<  oooXXX XXXXXXXooo **%%****....",
",,,,----%%%%----;;;;:;;;;     <<  oooXXX XXXXXXXooo ;;;;;;;;....",
",,,,----%%%%----;;;;:;;;;;::::   XXXXXXX   XXXXX   :;;;;;;;;....",
",,,,----%%%%----;;;;;;;;;;;;:;;;: <<X<  ---     ----;;;;;;;;....",
",,,,----%%%%----;;;;;;;;;;;;;;::: <<X<  ---     ----;;;;;;::....",
"::::%%%%%%%%------------%%%%%%%%**    **********%%%%--------....",
"::::%%%%%%%%------------%%%%%%%%****************%%%%--------....",
"::::%%%%%%%%------------%%%%%%%%****************%%%%--------....",
"::::%%%%%%%%------------%%%%%%%%*******%********%%%%--------....",
",,,,----------------------------:---;;;;:;;;----------------....",
",,,,--------------------------------;;;;:;;;----------------....",
",,,,--------------------------------;;;;;;;;----------------....",
",,,,-------------------:------------;;;;;;;;----------------....",
",,,,----%%%%****************%%%%----------------****%%%%----....",
",,,,----%%%%****************%%%%----------------****%%%%----....",
",,,,----%%%%****************%%%%----------------****%%%%----....",
",,,,----%%%%****************%%%=----------------****%%%%----....",
"$$$$............................$$$$.$$$$$$$$$$$$$$$............",
"$$$$............................$$$$.$$$$$$$$$$$$$$$............",
"$$$$............................$$$$$$$$$$$$$$$$$$$$............",
"$$$$............................$$$$$$$$$$$$$$$$$$$$............"
};
